<svg width="80" xmlns="http://www.w3.org/2000/svg" height="106" fill="none"><defs><clipPath id="a" class="frame-clip frame-clip-def"><rect rx="0" ry="0" width="80" height="106"/></clipPath></defs><g clip-path="url(#a)"><g class="fills"><rect rx="0" ry="0" width="80" height="106" class="frame-background"/></g><g class="frame-children"><rect rx="5" ry="5" x="14" y="15" width="50" height="70" class="fills"/><g stroke-linejoin="round" class="strokes"><rect rx="5" ry="5" x="14" y="15" width="50" height="70" style="fill: none; stroke-width: 2; stroke: rgb(0, 0, 0); stroke-opacity: 1;" class="stroke-shape"/></g><path d="M19 30h40" style="fill: none;" class="fills"/><g stroke-linejoin="round" class="strokes"><path d="M19 30h40" style="fill: none; stroke-width: 2; stroke: rgb(0, 0, 0); stroke-opacity: 1;" class="stroke-shape"/></g><path d="M19 40h40" style="fill: none;" class="fills"/><g stroke-linejoin="round" class="strokes"><path d="M19 40h40" style="fill: none; stroke-width: 2; stroke: rgb(0, 0, 0); stroke-opacity: 1;" class="stroke-shape"/></g><path d="M19 50h40" style="fill: none;" class="fills"/><g stroke-linejoin="round" class="strokes"><path d="M19 50h40" style="fill: none; stroke-width: 2; stroke: rgb(0, 0, 0); stroke-opacity: 1;" class="stroke-shape"/></g><path d="m42 67 7 7 7-7" style="fill: none;" class="fills"/><g stroke-linejoin="round" class="strokes"><path d="m42 67 7 7 7-7" style="fill: none; stroke-width: 2; stroke: rgb(0, 0, 0); stroke-opacity: 1;" class="stroke-shape"/></g><path d="M49 73V58" style="fill: none;" class="fills"/><g stroke-linejoin="round" class="strokes"><path d="M49 73V58" style="fill: none; stroke-width: 2; stroke: rgb(0, 0, 0); stroke-opacity: 1;" class="stroke-shape"/></g><circle cx="49" cy="85" style="fill: rgb(0, 0, 0);" r="4" class="fills"/><g stroke-linejoin="round" class="strokes"><circle cx="49" cy="85" style="fill: none; stroke-width: 2; stroke: rgb(0, 0, 0); stroke-opacity: 1;" r="4" class="stroke-shape"/></g></g></g></svg>